<?xml version="1.0" encoding="UTF-8"?>
<svg version="1.1" xmlns="http://www.w3.org/2000/svg" width="2102" height="6302">
<path d="M0 0 C1.08023438 -0.01675781 2.16046875 -0.03351563 3.2734375 -0.05078125 C6.50742989 0.29975639 8.66457891 1.20286768 11.57617188 2.56616211 C16.81869796 4.47588592 22.74450966 4.51888536 28.26367188 5.04101562 C35.30121549 5.81785747 39.6378204 6.91329563 44.4375 12.375 C46.75636298 14.42885007 48.14101806 14.89187494 51.0625 15.75 C55.48049733 17.0961645 57.43993186 18.89992699 60.625 22.3125 C62.4636297 23.64667807 64.31964271 24.95705784 66.1875 26.25 C70.41761726 29.26581136 73.30056926 31.66363852 75.625 36.3125 C75.625 36.9725 75.625 37.6325 75.625 38.3125 C76.181875 38.498125 76.73875 38.68375 77.3125 38.875 C81.90771302 41.73148377 84.25315789 45.9180921 85.625 51.0625 C86.26170385 54.48481151 86.26170385 54.48481151 89.0625 55.625 C93.24550932 58.37966467 93.62645131 62.58688422 94.625 67.3125 C95.13225153 70.42084585 95.60427929 73.52389273 96 76.6484375 C96.44224567 79.33623876 96.44224567 79.33623876 98.0625 81.2265625 C102.64714297 87.34706086 101.96417587 95.30824549 102.0390625 102.58984375 C102.06811172 104.33957237 102.06811172 104.33957237 102.0977478 106.12464905 C102.15730104 109.83302608 102.20383229 113.54143456 102.25 117.25 C102.28820206 119.77149756 102.32725508 122.29298238 102.3671875 124.81445312 C102.46298267 130.98035527 102.5481007 137.14633479 102.625 143.3125 C105.14602141 144.5730107 106.96929138 144.47097888 109.7890625 144.5234375 C110.82933594 144.55179688 111.86960937 144.58015625 112.94140625 144.609375 C115.12353867 144.66090115 117.30585177 144.70533103 119.48828125 144.7421875 C127.11014242 144.96718709 133.3924895 145.52078638 139.375 150.6875 C140.48875 151.986875 140.48875 151.986875 141.625 153.3125 C142.32625 154.116875 143.0275 154.92125 143.75 155.75 C145.75016468 158.48355839 147.13843835 161.27474359 148.625 164.3125 C149.61887334 165.65040641 150.6176892 166.98468122 151.625 168.3125 C152.8013649 171.8415947 152.75388928 174.62602966 152.75871277 178.35249329 C152.76097833 179.07361193 152.76324388 179.79473058 152.76557809 180.53770131 C152.77192155 182.9604531 152.7710885 185.38314901 152.77026367 187.8059082 C152.77325498 189.54043653 152.77665744 191.27496419 152.78044128 193.00949097 C152.78928916 197.72651145 152.79161975 202.4435138 152.79225707 207.16054177 C152.79320582 211.09688865 152.7968838 215.03323129 152.80042917 218.96957654 C152.808577 228.25698224 152.81101313 237.54437824 152.81030273 246.83178711 C152.80970209 256.41397391 152.82025042 265.99610439 152.8360464 275.57827693 C152.84912112 283.80256964 152.85448665 292.02684395 152.85384732 300.25114697 C152.85359228 305.1641638 152.85644677 310.07713061 152.86702538 314.9901371 C152.87670499 319.61201572 152.87678645 324.23379649 152.86950874 328.85567856 C152.86846268 330.55118515 152.87082709 332.24669783 152.8768692 333.94219398 C152.88458918 336.25876296 152.87994435 338.57499406 152.87223816 340.89155579 C152.87278293 342.18738744 152.87332769 343.48321909 152.87388897 344.81831837 C152.45054635 350.76167542 150.89562576 354.28114591 146.90234375 358.66796875 C145.46148957 360.52301342 144.70413505 362.33233613 143.8125 364.5 C142.32113588 367.62589919 141.16692642 368.94801781 137.9375 370.25 C130.16472354 372.34934674 122.25657629 372.45959768 114.25311279 372.44621277 C112.74238044 372.4496111 112.74238044 372.4496111 111.20112824 372.45307809 C107.8459877 372.45937864 104.49088797 372.45859127 101.13574219 372.45776367 C98.72204028 372.46075762 96.30833886 372.4641607 93.89463806 372.46794128 C88.03004779 372.47584629 82.16546699 372.4789949 76.30087247 372.47955366 C71.53003018 372.48003011 66.75919117 372.48209128 61.98834991 372.48525429 C48.43900568 372.49405348 34.88966934 372.49867482 21.34032223 372.49792381 C20.61103835 372.49788386 19.88175448 372.4978439 19.13037109 372.49780273 C18.40018879 372.49776185 17.6700065 372.49772097 16.91769746 372.49767885 C5.09006161 372.49727259 -6.73754237 372.506839 -18.56516901 372.5209411 C-30.73236249 372.5353327 -42.89954046 372.54220976 -55.06674266 372.54134732 C-61.8885767 372.54101632 -68.71037734 372.54372111 -75.53220367 372.55452538 C-81.95084644 372.56462658 -88.36943701 372.56426667 -94.78808403 372.55700874 C-97.13696585 372.55596632 -99.48585211 372.55830535 -101.83472633 372.5643692 C-133.43936693 372.64064233 -133.43936693 372.64064233 -140.375 366.3125 C-141.59765625 364.3125 -141.59765625 364.3125 -142.4375 362.3125 C-143.63417057 359.67207304 -144.31853701 358.36398096 -146.5 356.375 C-152.53326904 349.73840405 -150.66418374 337.11762891 -150.6496582 328.64453125 C-150.65401105 326.96324437 -150.6591961 325.28195948 -150.66514587 323.60067749 C-150.67848357 319.05527402 -150.67912053 314.50995397 -150.67658257 309.96453476 C-150.67550959 306.16237252 -150.68040443 302.36022693 -150.685188 298.55806828 C-150.69626447 289.58589992 -150.69673066 280.61377344 -150.69067383 271.64160156 C-150.684631 262.40013576 -150.69695718 253.15882209 -150.7182439 243.91738224 C-150.73587973 235.96722223 -150.74185824 228.01711057 -150.73860615 220.06693172 C-150.73679678 215.32547297 -150.73939522 210.58412284 -150.75332069 205.84268188 C-150.7659272 201.38400015 -150.76392832 196.92555522 -150.75090981 192.46687698 C-150.74855085 190.83551579 -150.75125418 189.20413777 -150.75953293 187.57279587 C-150.84452185 169.51678277 -150.84452185 169.51678277 -145.375 161.3125 C-144.715 161.3125 -144.055 161.3125 -143.375 161.3125 C-143.16875 160.466875 -142.9625 159.62125 -142.75 158.75 C-140.82519882 153.93799706 -138.41675669 149.76547827 -133.59228516 147.4609375 C-127.10143036 144.99721236 -120.75515866 144.80411286 -113.875 144.6875 C-111.71865344 144.63676243 -109.56239034 144.58228997 -107.40625 144.5234375 C-106.46330078 144.50587402 -105.52035156 144.48831055 -104.54882812 144.47021484 C-102.39677711 144.55230571 -102.39677711 144.55230571 -101.375 143.3125 C-101.26736836 141.51938503 -101.22873847 139.7220871 -101.21728516 137.92578125 C-101.20702301 136.77368164 -101.19676086 135.62158203 -101.18618774 134.43457031 C-101.17888641 133.17741211 -101.17158508 131.92025391 -101.1640625 130.625 C-101.14317706 128.65841302 -101.122274 126.69182606 -101.10036278 124.72525024 C-101.04722057 119.86491908 -101.00318056 115.00457553 -100.97363281 110.14404297 C-100.95665335 107.42425566 -100.93187245 104.70474627 -100.89877319 101.98510742 C-100.86795114 99.42418709 -100.84841858 96.86309896 -100.84170532 94.30200195 C-100.61944143 78.50653824 -100.61944143 78.50653824 -95.82901001 73.79052734 C-93.41152255 71.33310783 -93.27194019 67.96580647 -92.625 64.6875 C-91.23473589 58.4169536 -89.46895986 54.18653627 -85.1015625 49.3359375 C-83.2551864 47.17208497 -82.08523646 45.03726172 -80.8125 42.5 C-78.67458317 38.42172962 -76.2836756 36.77666505 -72.375 34.3125 C-71.941875 33.36375 -71.50875 32.415 -71.0625 31.4375 C-68.90495015 27.44203731 -66.29796809 26.08236307 -62.4921875 23.75390625 C-60.17807247 22.36457696 -60.17807247 22.36457696 -58.5625 19.6875 C-55.37396581 16.22566288 -51.57172634 15.66906382 -47.13671875 14.34765625 C-43.6856187 13.0541039 -42.53999812 11.2240492 -40.375 8.3125 C-34.31662471 5.4643263 -27.69965766 4.5866846 -21.125 3.75 C-13.92438222 2.81796737 -7.18247635 0.02559077 0 0 Z M-16.375 49.5 C-17.18855957 49.60078857 -18.00211914 49.70157715 -18.84033203 49.80541992 C-24.26873847 50.64390375 -26.7033685 52.02787667 -30.375 56.3125 C-33.00164257 58.44065566 -35.67647949 60.4915858 -38.36328125 62.54296875 C-39.35908203 63.41888672 -39.35908203 63.41888672 -40.375 64.3125 C-40.375 64.9725 -40.375 65.6325 -40.375 66.3125 C-40.97828125 66.5290625 -41.5815625 66.745625 -42.203125 66.96875 C-45.13436364 68.78232211 -45.78496541 70.66920898 -47.125 73.8125 C-47.55296875 74.7921875 -47.9809375 75.771875 -48.421875 76.78125 C-49.49246309 79.17365946 -49.49246309 79.17365946 -49.375 81.3125 C-51.355 81.8075 -51.355 81.8075 -53.375 82.3125 C-55.49762944 89.23667812 -55.65105371 95.65950248 -55.60546875 102.87109375 C-55.60501053 104.05598892 -55.60455231 105.24088409 -55.6040802 106.46168518 C-55.60107151 108.95192473 -55.59322693 111.44216263 -55.58081055 113.93237305 C-55.56244425 117.76162296 -55.5603018 121.59063232 -55.56054688 125.41992188 C-55.55563538 127.84114794 -55.54980868 130.26237236 -55.54296875 132.68359375 C-55.54185593 133.83452011 -55.5407431 134.98544647 -55.53959656 136.17124939 C-55.53321671 137.22647293 -55.52683685 138.28169647 -55.52026367 139.36889648 C-55.51645187 140.30185043 -55.51264008 141.23480438 -55.50871277 142.19602966 C-55.61006431 144.29780757 -55.61006431 144.29780757 -54.375 145.3125 C-52.99263512 145.41006864 -51.60533189 145.43881631 -50.2195282 145.43948364 C-49.32361969 145.44230347 -48.42771118 145.44512329 -47.50465393 145.44802856 C-46.51400436 145.44600433 -45.5233548 145.4439801 -44.50268555 145.44189453 C-43.46533264 145.44364685 -42.42797974 145.44539917 -41.35919189 145.44720459 C-37.91001745 145.45162659 -34.46089377 145.44868325 -31.01171875 145.4453125 C-28.62376394 145.44598559 -26.23580919 145.44695566 -23.84785461 145.44821167 C-18.83321483 145.44968924 -13.81859281 145.44753276 -8.80395508 145.44287109 C-2.37092767 145.437183 4.06205794 145.44044661 10.49508381 145.44644356 C15.43037735 145.45005545 20.36566098 145.44890752 25.30095482 145.44631577 C27.67286369 145.44564776 30.04477346 145.44647052 32.41668129 145.44879532 C35.73264579 145.45133108 39.0485425 145.44746768 42.36450195 145.44189453 C43.34907883 145.44391876 44.3336557 145.44594299 45.34806824 145.44802856 C46.25243622 145.44520874 47.1568042 145.44238892 48.08857727 145.43948364 C49.26468048 145.4389181 49.26468048 145.4389181 50.46454334 145.43834114 C52.63475023 145.31193207 54.539504 144.91035162 56.625 144.3125 C56.7264521 136.99857434 56.79648763 129.68483026 56.84472656 122.37036133 C56.86483705 119.88233662 56.89212927 117.39435914 56.92675781 114.90649414 C56.97529853 111.32947125 56.99797495 107.75307349 57.015625 104.17578125 C57.03627014 103.06415115 57.05691528 101.95252106 57.07818604 100.8072052 C57.1609006 94.71754255 57.1609006 94.71754255 54.68017578 89.30932617 C53.66286377 88.32089722 53.66286377 88.32089722 52.625 87.3125 C51.80712891 85.35546875 51.80712891 85.35546875 51.3515625 83.5 C51.1659375 82.81679687 50.9803125 82.13359375 50.7890625 81.4296875 C50.43015827 80.02007813 50.07856712 78.60858622 49.734375 77.1953125 C48.22892513 71.73032324 46.1864783 69.65321713 41.625 66.3125 C40.3875 64.7965625 40.3875 64.7965625 39.125 63.25 C36.74610108 60.18287924 36.74610108 60.18287924 33.4375 58.1875 C30.625 56.3125 30.625 56.3125 29.6875 54.265625 C29.336875 53.62109375 28.98625 52.9765625 28.625 52.3125 C25.56046141 51.40820992 22.76223615 50.81231572 19.625 50.3125 C18.12646484 50.0340625 18.12646484 50.0340625 16.59765625 49.75 C5.3789798 47.79183102 -5.13279445 47.94613829 -16.375 49.5 Z " fill="#FFFFFF" transform="translate(350.375,145.6875)"/>
<path d="M0 0 C1.37948229 -0.0038955 2.75896339 -0.0082319 4.13844299 -0.01298523 C7.01884869 -0.02041265 9.89913174 -0.0201814 12.77954102 -0.01489258 C16.44878388 -0.00909936 20.11752171 -0.02604185 23.78668118 -0.04923725 C26.63250097 -0.06405339 29.47820127 -0.06483572 32.32405281 -0.06172752 C34.32742161 -0.06248208 36.33077202 -0.07628658 38.33409119 -0.09040833 C49.7022186 -0.03306355 58.82943825 2.16624232 67.56640625 9.73828125 C69.69398755 12.23059077 70.77840127 14.19690178 71.75390625 17.30078125 C72.41390625 17.30078125 73.07390625 17.30078125 73.75390625 17.30078125 C78.2169969 24.83224673 78.19386506 31.70936343 77.75390625 40.30078125 C78.72662476 40.26936035 78.72662476 40.26936035 79.71899414 40.23730469 C97.00031047 39.75382563 111.40307555 40.50357443 126.75390625 49.30078125 C127.78515625 49.85765625 128.81640625 50.41453125 129.87890625 50.98828125 C130.49765625 51.42140625 131.11640625 51.85453125 131.75390625 52.30078125 C131.75390625 52.96078125 131.75390625 53.62078125 131.75390625 54.30078125 C132.45515625 54.48640625 133.15640625 54.67203125 133.87890625 54.86328125 C137.90572293 56.87668959 140.02265955 59.79116399 142.75390625 63.30078125 C143.25019531 63.90019531 143.74648438 64.49960937 144.2578125 65.1171875 C155.30298342 78.93086079 159.63182276 95.80046883 157.75390625 113.30078125 C156.30554485 122.2410421 153.2530126 130.46422305 148.75390625 138.30078125 C149.46675781 138.28917969 150.17960937 138.27757812 150.9140625 138.265625 C161.90390358 138.16208679 168.87835232 139.39606242 177.75390625 146.30078125 C181.75390625 150.77649314 181.75390625 150.77649314 181.75390625 153.30078125 C182.41390625 153.30078125 183.07390625 153.30078125 183.75390625 153.30078125 C188.18142645 160.1950627 189.24802512 166.52597365 189.25390625 174.55078125 C189.25970703 175.40188477 189.26550781 176.25298828 189.27148438 177.12988281 C189.16528357 182.56523986 188.21770675 186.45181217 185.75390625 191.30078125 C188.06390625 192.62078125 190.37390625 193.94078125 192.75390625 195.30078125 C192.75390625 195.96078125 192.75390625 196.62078125 192.75390625 197.30078125 C193.39328125 197.56890625 194.03265625 197.83703125 194.69140625 198.11328125 C196.75390625 199.30078125 196.75390625 199.30078125 197.75390625 202.30078125 C198.74390625 202.63078125 199.73390625 202.96078125 200.75390625 203.30078125 C202.10546875 205.15625 202.10546875 205.15625 203.37890625 207.48828125 C203.80429687 208.24496094 204.2296875 209.00164062 204.66796875 209.78125 C206.89176575 214.94077901 206.9129842 220.18461255 206.94140625 225.73828125 C206.95558594 226.99511719 206.96976563 228.25195312 206.984375 229.546875 C206.65092593 234.97813871 205.21342216 239.80473687 202.81640625 244.67578125 C202.49800781 245.34351563 202.17960937 246.01125 201.8515625 246.69921875 C200.75390625 248.30078125 200.75390625 248.30078125 197.75390625 249.30078125 C197.42390625 249.96078125 197.09390625 250.62078125 196.75390625 251.30078125 C196.42390625 251.96078125 196.09390625 252.62078125 195.75390625 253.30078125 C194.76390625 253.63078125 193.77390625 253.96078125 192.75390625 254.30078125 C192.75390625 254.96078125 192.75390625 255.62078125 192.75390625 256.30078125 C191.1953887 257.12089437 189.63188909 257.93154338 188.06640625 258.73828125 C187.19628906 259.19074219 186.32617188 259.64320313 185.4296875 260.109375 C180.86302912 262.14270464 176.62576026 262.42666137 171.66374207 262.43449402 C169.82807426 262.44089149 169.82807426 262.44089149 167.95532227 262.44741821 C166.6071777 262.44706873 165.25903316 262.44660722 163.91088867 262.44604492 C162.48472506 262.4490386 161.05856226 262.45244161 159.63240051 262.45622253 C155.76450986 262.46504611 151.89664134 262.46739997 148.0287416 262.46803832 C145.60997714 262.46874982 143.19121828 262.47088606 140.77245522 262.47353554 C132.32771066 262.48278394 123.88298187 262.48687111 115.43823242 262.48608398 C107.57719133 262.48548351 99.71621894 262.49603061 91.85519522 262.51182765 C85.09748487 262.52492166 78.33979692 262.53026709 71.58207399 262.52962857 C67.54986646 262.52937411 63.51771998 262.53219677 59.48552513 262.54280663 C55.69094903 262.55251882 51.89649195 262.55254548 48.10191154 262.54528999 C46.7136289 262.54424798 45.32533872 262.54658415 43.93706894 262.55265045 C31.48462467 262.60351508 21.8910808 261.19182067 12.234375 252.85546875 C8.21426916 248.63382726 5.31721638 243.49890723 2.75390625 238.30078125 C1.96706105 238.2974711 1.18021585 238.29416096 0.36952686 238.2907505 C-18.82071349 238.20935187 -38.01087509 238.11720487 -57.20100689 238.01325417 C-66.48140012 237.96323962 -75.76178502 237.91679589 -85.04223633 237.87890625 C-93.13581632 237.84585307 -101.22932938 237.80594935 -109.32283527 237.75799119 C-113.60396523 237.73285799 -117.88505155 237.71103864 -122.16623497 237.69743729 C-126.20539153 237.68449624 -130.24439739 237.6623155 -134.28347015 237.63339806 C-135.75670797 237.62441544 -137.22996999 237.61865418 -138.70323372 237.61656761 C-162.27483199 237.57724513 -162.27483199 237.57724513 -171.68359375 232.42578125 C-172.65683594 231.89726563 -173.63007813 231.36875 -174.6328125 230.82421875 C-175.49519531 230.32148437 -176.35757813 229.81875 -177.24609375 229.30078125 C-177.93316406 228.90117188 -178.62023437 228.5015625 -179.328125 228.08984375 C-180.99609375 227.05078125 -180.99609375 227.05078125 -183.24609375 225.30078125 C-183.24609375 224.64078125 -183.24609375 223.98078125 -183.24609375 223.30078125 C-183.94734375 223.11515625 -184.64859375 222.92953125 -185.37109375 222.73828125 C-194.67067402 218.08849112 -202.08768286 203.43226247 -206.24609375 194.30078125 C-211.54561385 178.29317734 -210.60290899 161.32049163 -203.43359375 146.05078125 C-202.7308055 144.7857624 -201.99860263 143.5368696 -201.24609375 142.30078125 C-200.71886719 141.41777344 -200.19164062 140.53476562 -199.6484375 139.625 C-189.93777132 123.85317075 -177.80870122 114.50313008 -159.6953125 109.67578125 C-150.20311127 107.54381773 -140.60961349 107.97983627 -130.93359375 108.11328125 C-129.0175887 108.1283628 -127.10157211 108.14204503 -125.18554688 108.15429688 C-120.53877206 108.18701034 -115.8925638 108.23859872 -111.24609375 108.30078125 C-111.2605957 107.50559082 -111.27509766 106.71040039 -111.29003906 105.89111328 C-111.49836842 86.34089113 -104.13231408 71.02744797 -90.95703125 56.8828125 C-86.79360476 52.91735874 -82.2917435 50.0211094 -77.24609375 47.30078125 C-76.50746094 46.90246094 -75.76882813 46.50414062 -75.0078125 46.09375 C-64.94740003 41.18309163 -54.32950358 39.76158834 -43.24609375 40.30078125 C-43.2925 39.39457031 -43.33890625 38.48835937 -43.38671875 37.5546875 C-43.61613453 29.8119049 -43.23330954 24.0292079 -39.24609375 17.30078125 C-38.58609375 17.30078125 -37.92609375 17.30078125 -37.24609375 17.30078125 C-36.90578125 16.46546875 -36.90578125 16.46546875 -36.55859375 15.61328125 C-34.29008926 11.61639239 -31.62709429 8.76111476 -27.24609375 7.30078125 C-27.24609375 6.64078125 -27.24609375 5.98078125 -27.24609375 5.30078125 C-19.26386854 -0.68588766 -9.48298155 -0.00660504 0 0 Z " fill="#FFFFFF" transform="translate(350.24609375,776.69921875)"/>
<path d="M0 0 C1.98 0 3.96 0 6 0 C7.57529158 3.73351043 8.7238353 7.47433754 9.8125 11.375 C12.71377881 20.73294292 15.98389281 24.96248521 24.5546875 29.78515625 C27.29609052 31.14709928 30.07746478 32.10075839 33 33 C34.66098015 36.3219603 34.13645112 40.04095229 34.12698364 43.69299316 C34.12854363 44.60392306 34.13010362 45.51485295 34.13171089 46.45338678 C34.13571883 49.52427923 34.13253202 52.59512276 34.12939453 55.66601562 C34.13074866 57.86008229 34.13252866 60.05414872 34.13470459 62.24821472 C34.13927751 68.22118623 34.13748994 74.19414053 34.1343255 80.16711235 C34.13180118 86.40555748 34.13413964 92.6440011 34.13571167 98.88244629 C34.13764997 110.0325695 34.13453405 121.18268638 34.12945233 132.33280808 C34.12498438 142.44957777 34.12576033 152.56633599 34.13037109 162.68310547 C34.13571846 174.42167665 34.13771683 186.16024224 34.13475883 197.89881468 C34.13319639 204.11620579 34.1330014 210.333589 34.13629532 216.55097961 C34.1391749 222.39494428 34.13719671 228.23888719 34.13140106 234.0828495 C34.13007394 236.23316219 34.13046678 238.3834767 34.13266373 240.53378868 C34.13537706 243.45821982 34.1319918 246.38258026 34.12698364 249.30700684 C34.12921436 250.16749838 34.13144509 251.02798993 34.13374341 251.91455698 C34.11415001 257.77169997 34.11415001 257.77169997 33 260 C22.11 260 11.22 260 0 260 C0 174.2 0 88.4 0 0 Z " fill="#FFFFFF" transform="translate(339,1036)"/>
<path d="M0 0 C8.58 0 17.16 0 26 0 C27.54806545 1.54806545 27.12539401 2.99359695 27.12584114 5.14953613 C27.12844889 6.04962654 27.13105664 6.94971695 27.13374341 7.87708282 C27.13039732 9.37748737 27.13039732 9.37748737 27.12698364 10.90820312 C27.12854363 11.96190849 27.13010362 13.01561386 27.13171089 14.10124969 C27.13572586 17.66126368 27.13252933 21.22123564 27.12939453 24.78125 C27.13074835 27.32161484 27.13252817 29.86197948 27.13470459 32.40234375 C27.13880508 38.60356945 27.13818557 44.80477937 27.13529195 51.00600529 C27.13303814 56.0436367 27.1327253 61.08126471 27.13381577 66.11889648 C27.133969 66.83451547 27.13412223 67.55013446 27.13428011 68.28743887 C27.13459982 69.74097761 27.13492403 71.19451634 27.1352527 72.64805508 C27.13810766 86.29390881 27.13482022 99.93975584 27.12945233 113.58560848 C27.12498428 125.30707568 27.12576021 137.02853298 27.13037109 148.75 C27.13571657 162.34536146 27.13783297 175.94071704 27.13475883 189.53607941 C27.13444026 190.98442078 27.13412589 192.43276215 27.13381577 193.88110352 C27.13366149 194.59380826 27.13350721 195.30651301 27.13334826 196.04081488 C27.13248303 201.07530705 27.13394612 206.10979551 27.13629532 211.14428711 C27.13938465 217.91407002 27.13720096 224.68383125 27.13140106 231.45361328 C27.1300727 233.94620736 27.13046886 236.43880301 27.13266373 238.93139648 C27.13537226 242.31821837 27.13199776 245.70497896 27.12698364 249.09179688 C27.13032973 250.59220142 27.13032973 250.59220142 27.13374341 252.12291718 C27.12983178 253.47305279 27.12983178 253.47305279 27.12584114 254.85046387 C27.12567879 255.63328484 27.12551644 256.4161058 27.12534916 257.22264862 C27 259 27 259 26 260 C17.42 260 8.84 260 0 260 C0 174.2 0 88.4 0 0 Z " fill="#FFFFFF" transform="translate(270,1036)"/>
<path d="M0 0 C1.21042969 -0.00128906 2.42085938 -0.00257812 3.66796875 -0.00390625 C4.94285156 -0.00003906 6.21773438 0.00382812 7.53125 0.0078125 C9.44357422 0.00201172 9.44357422 0.00201172 11.39453125 -0.00390625 C13.21017578 -0.00197266 13.21017578 -0.00197266 15.0625 0 C16.18205078 0.00112793 17.30160156 0.00225586 18.45507812 0.00341797 C21.03125 0.1328125 21.03125 0.1328125 22.03125 1.1328125 C22.12920178 4.02799839 22.16117093 6.89933329 22.15150452 9.79493713 C22.15235894 10.71459084 22.15321337 11.63424455 22.15409368 12.58176655 C22.1557513 15.68807527 22.15022252 18.79433095 22.14477539 21.90063477 C22.14449355 24.11750284 22.14465118 26.334371 22.1452179 28.55123901 C22.14550601 34.59025151 22.1396071 40.62924433 22.13264394 46.66825223 C22.12641264 52.97169983 22.12580678 59.27514782 22.12461853 65.57859802 C22.12185883 76.16527645 22.11560332 86.75194839 22.10668945 97.33862305 C22.09751603 108.24487268 22.09043486 119.15112034 22.08618164 130.05737305 C22.08578756 131.06508997 22.08578756 131.06508997 22.08538551 132.09316481 C22.08408051 135.46331019 22.08281679 138.83345559 22.08157361 142.203601 C22.07110771 170.18001006 22.05330666 198.15641039 22.03125 226.1328125 C12.46125 226.1328125 2.89125 226.1328125 -6.96875 226.1328125 C-6.99133509 197.48616575 -7.00924809 168.83952092 -7.01981533 140.19286701 C-7.0210661 136.81436901 -7.02236042 133.43587102 -7.02368164 130.05737305 C-7.02394395 129.38474703 -7.02420626 128.71212102 -7.02447652 128.0191124 C-7.02883324 117.11398831 -7.0367208 106.20886947 -7.0459028 95.3037485 C-7.05523928 84.12227168 -7.0607307 72.94079667 -7.06283849 61.75931591 C-7.06414602 55.47541376 -7.06723453 49.19152354 -7.07448006 42.9076252 C-7.08123637 37.00049399 -7.08336776 31.09337967 -7.08185768 25.18624496 C-7.08213419 23.01132427 -7.0841416 20.83640304 -7.08795547 18.66148567 C-7.09288666 15.7059483 -7.09175043 12.75047582 -7.08900452 9.79493713 C-7.09191736 8.92238661 -7.0948302 8.04983608 -7.09783131 7.15084463 C-7.0801682 0.18020884 -6.87603679 0.0069275 0 0 Z " fill="#FFFFFF" transform="translate(416.96875,1069.8671875)"/>
</svg>
