<svg width="422.89208984375px" height="84.66652526855468px" xmlns="http://www.w3.org/2000/svg" viewBox="38.553955078125 32.66673736572266 422.89208984375 84.66652526855468" style="background: none;" preserveAspectRatio="xMidYMid"><defs><linearGradient id="editing-shadow-gradient1" x1="0" x2="0" y1="0" y2="1"><stop offset="0" stop-color="#000000" stop-opacity="0"></stop><stop offset="0.2" stop-color="#000000" stop-opacity="0"></stop><stop offset="1" stop-color="#000000" stop-opacity="1"></stop></linearGradient><linearGradient id="editing-shadow-gradient2" x1="-0.2547095802227721" x2="1.2547095802227721" y1="-0.15605902899050716" y2="1.1560590289905073"><stop offset="0" stop-color="#bcc9fc"></stop><stop offset="1" stop-color="#000000"></stop></linearGradient><filter id="editing-shadow" x="-100%" y="-100%" width="300%" height="300%"><feGaussianBlur stdDeviation="20"></feGaussianBlur><feComposite operator="in" in2="SourceGraphic"></feComposite><feGaussianBlur stdDeviation="10"></feGaussianBlur></filter></defs><g transform="translate(250,75)"><g transform="translate(-12.899999999999999, -1.2)"><g transform="skewX(45)"><g filter="url(#editing-shadow)"><g transform="translate(-126.50000286102295, 13.880000114440918)"><path d="M4.45 0L4.45-27.30L15.56-27.30L15.56-27.30Q19.89-27.30 23.20-25.56L23.20-25.56L23.20-25.56Q26.52-23.83 28.35-20.73L28.35-20.73L28.35-20.73Q30.19-17.63 30.19-13.65L30.19-13.65L30.19-13.65Q30.19-9.67 28.35-6.57L28.35-6.57L28.35-6.57Q26.52-3.47 23.20-1.74L23.20-1.74L23.20-1.74Q19.89 0 15.56 0L15.56 0L4.45 0ZM7.33-2.50L15.40-2.50L15.40-2.50Q18.99-2.50 21.68-3.92L21.68-3.92L21.68-3.92Q24.38-5.34 25.86-7.86L25.86-7.86L25.86-7.86Q27.34-10.37 27.34-13.65L27.34-13.65L27.34-13.65Q27.34-16.93 25.86-19.44L25.86-19.44L25.86-19.44Q24.38-21.96 21.68-23.38L21.68-23.38L21.68-23.38Q18.99-24.80 15.40-24.80L15.40-24.80L7.33-24.80L7.33-2.50ZM68.68 0L65.52 0L59.28-8.78L59.28-8.78Q58.23-8.66 57.10-8.66L57.10-8.66L49.76-8.66L49.76 0L46.88 0L46.88-27.30L57.10-27.30L57.10-27.30Q62.32-27.30 65.29-24.80L65.29-24.80L65.29-24.80Q68.25-22.31 68.25-17.94L68.25-17.94L68.25-17.94Q68.25-14.74 66.63-12.54L66.63-12.54L66.63-12.54Q65.01-10.34 62.01-9.36L62.01-9.36L68.68 0ZM57.02-11.12L57.02-11.12Q61.07-11.12 63.22-12.91L63.22-12.91L63.22-12.91Q65.36-14.70 65.36-17.94L65.36-17.94L65.36-17.94Q65.36-21.25 63.22-23.03L63.22-23.03L63.22-23.03Q61.07-24.80 57.02-24.80L57.02-24.80L49.76-24.80L49.76-11.12L57.02-11.12ZM85.29 0L85.29-27.30L88.18-27.30L88.18 0L85.29 0ZM117.51-27.30L117.51-27.30Q122.73-27.30 125.70-24.80L125.70-24.80L125.70-24.80Q128.66-22.31 128.66-17.94L128.66-17.94L128.66-17.94Q128.66-13.57 125.70-11.10L125.70-11.10L125.70-11.10Q122.73-8.62 117.51-8.62L117.51-8.62L110.18-8.62L110.18 0L107.29 0L107.29-27.30L117.51-27.30ZM117.43-11.15L117.43-11.15Q121.49-11.15 123.63-12.93L123.63-12.93L123.63-12.93Q125.78-14.70 125.78-17.94L125.78-17.94L125.78-17.94Q125.78-21.25 123.63-23.03L123.63-23.03L123.63-23.03Q121.49-24.80 117.43-24.80L117.43-24.80L110.18-24.80L110.18-11.15L117.43-11.15ZM162.71-14.08L162.71-14.08Q165.40-13.49 166.86-11.76L166.86-11.76L166.86-11.76Q168.32-10.02 168.32-7.29L168.32-7.29L168.32-7.29Q168.32-3.78 165.73-1.89L165.73-1.89L165.73-1.89Q163.14 0 158.07 0L158.07 0L145.51 0L145.51-27.30L157.29-27.30L157.29-27.30Q161.85-27.30 164.37-25.47L164.37-25.47L164.37-25.47Q166.88-23.63 166.88-20.28L166.88-20.28L166.88-20.28Q166.88-18.02 165.77-16.44L165.77-16.44L165.77-16.44Q164.66-14.86 162.71-14.08L162.71-14.08ZM157.09-24.92L148.40-24.92L148.40-15.02L157.09-15.02L157.09-15.02Q160.41-15.02 162.20-16.28L162.20-16.28L162.20-16.28Q164.00-17.55 164.00-19.97L164.00-19.97L164.00-19.97Q164.00-22.39 162.20-23.65L162.20-23.65L162.20-23.65Q160.41-24.92 157.09-24.92L157.09-24.92ZM158.03-2.38L158.03-2.38Q161.69-2.38 163.57-3.63L163.57-3.63L163.57-3.63Q165.44-4.88 165.44-7.53L165.44-7.53L165.44-7.53Q165.44-12.64 158.03-12.64L158.03-12.64L148.40-12.64L148.40-2.38L158.03-2.38ZM197.07 0.23L197.07 0.23Q193.01 0.23 189.72-1.58L189.72-1.58L189.72-1.58Q186.42-3.39 184.57-6.55L184.57-6.55L184.57-6.55Q182.72-9.71 182.72-13.65L182.72-13.65L182.72-13.65Q182.72-17.59 184.57-20.75L184.57-20.75L184.57-20.75Q186.42-23.91 189.72-25.72L189.72-25.72L189.72-25.72Q193.01-27.53 197.07-27.53L197.07-27.53L197.07-27.53Q201.12-27.53 204.38-25.74L204.38-25.74L204.38-25.74Q207.64-23.95 209.51-20.77L209.51-20.77L209.51-20.77Q211.38-17.59 211.38-13.65L211.38-13.65L211.38-13.65Q211.38-9.71 209.51-6.53L209.51-6.53L209.51-6.53Q207.64-3.35 204.38-1.56L204.38-1.56L204.38-1.56Q201.12 0.23 197.07 0.23L197.07 0.23ZM197.07-2.34L197.07-2.34Q200.30-2.34 202.92-3.80L202.92-3.80L202.92-3.80Q205.53-5.26 207.01-7.86L207.01-7.86L207.01-7.86Q208.49-10.45 208.49-13.65L208.49-13.65L208.49-13.65Q208.49-16.85 207.01-19.44L207.01-19.44L207.01-19.44Q205.53-22.04 202.92-23.50L202.92-23.50L202.92-23.50Q200.30-24.96 197.07-24.96L197.07-24.96L197.07-24.96Q193.83-24.96 191.20-23.50L191.20-23.50L191.20-23.50Q188.56-22.04 187.06-19.44L187.06-19.44L187.06-19.44Q185.56-16.85 185.56-13.65L185.56-13.65L185.56-13.65Q185.56-10.45 187.06-7.86L187.06-7.86L187.06-7.86Q188.56-5.26 191.20-3.80L191.20-3.80L191.20-3.80Q193.83-2.34 197.07-2.34L197.07-2.34ZM248.55 0L245.19 0L236.38-12.01L227.60 0L224.29 0L234.66-14.04L224.95-27.30L228.27-27.30L236.50-16.15L244.69-27.30L247.81-27.30L238.13-14.12L248.55 0Z" fill="url(#editing-shadow-gradient1)"></path></g></g></g></g><g><g transform="translate(-126.50000286102295, 13.880000114440918)"><path d="M4.45 0L4.45-27.30L15.56-27.30L15.56-27.30Q19.89-27.30 23.20-25.56L23.20-25.56L23.20-25.56Q26.52-23.83 28.35-20.73L28.35-20.73L28.35-20.73Q30.19-17.63 30.19-13.65L30.19-13.65L30.19-13.65Q30.19-9.67 28.35-6.57L28.35-6.57L28.35-6.57Q26.52-3.47 23.20-1.74L23.20-1.74L23.20-1.74Q19.89 0 15.56 0L15.56 0L4.45 0ZM7.33-2.50L15.40-2.50L15.40-2.50Q18.99-2.50 21.68-3.92L21.68-3.92L21.68-3.92Q24.38-5.34 25.86-7.86L25.86-7.86L25.86-7.86Q27.34-10.37 27.34-13.65L27.34-13.65L27.34-13.65Q27.34-16.93 25.86-19.44L25.86-19.44L25.86-19.44Q24.38-21.96 21.68-23.38L21.68-23.38L21.68-23.38Q18.99-24.80 15.40-24.80L15.40-24.80L7.33-24.80L7.33-2.50ZM68.68 0L65.52 0L59.28-8.78L59.28-8.78Q58.23-8.66 57.10-8.66L57.10-8.66L49.76-8.66L49.76 0L46.88 0L46.88-27.30L57.10-27.30L57.10-27.30Q62.32-27.30 65.29-24.80L65.29-24.80L65.29-24.80Q68.25-22.31 68.25-17.94L68.25-17.94L68.25-17.94Q68.25-14.74 66.63-12.54L66.63-12.54L66.63-12.54Q65.01-10.34 62.01-9.36L62.01-9.36L68.68 0ZM57.02-11.12L57.02-11.12Q61.07-11.12 63.22-12.91L63.22-12.91L63.22-12.91Q65.36-14.70 65.36-17.94L65.36-17.94L65.36-17.94Q65.36-21.25 63.22-23.03L63.22-23.03L63.22-23.03Q61.07-24.80 57.02-24.80L57.02-24.80L49.76-24.80L49.76-11.12L57.02-11.12ZM85.29 0L85.29-27.30L88.18-27.30L88.18 0L85.29 0ZM117.51-27.30L117.51-27.30Q122.73-27.30 125.70-24.80L125.70-24.80L125.70-24.80Q128.66-22.31 128.66-17.94L128.66-17.94L128.66-17.94Q128.66-13.57 125.70-11.10L125.70-11.10L125.70-11.10Q122.73-8.62 117.51-8.62L117.51-8.62L110.18-8.62L110.18 0L107.29 0L107.29-27.30L117.51-27.30ZM117.43-11.15L117.43-11.15Q121.49-11.15 123.63-12.93L123.63-12.93L123.63-12.93Q125.78-14.70 125.78-17.94L125.78-17.94L125.78-17.94Q125.78-21.25 123.63-23.03L123.63-23.03L123.63-23.03Q121.49-24.80 117.43-24.80L117.43-24.80L110.18-24.80L110.18-11.15L117.43-11.15ZM162.71-14.08L162.71-14.08Q165.40-13.49 166.86-11.76L166.86-11.76L166.86-11.76Q168.32-10.02 168.32-7.29L168.32-7.29L168.32-7.29Q168.32-3.78 165.73-1.89L165.73-1.89L165.73-1.89Q163.14 0 158.07 0L158.07 0L145.51 0L145.51-27.30L157.29-27.30L157.29-27.30Q161.85-27.30 164.37-25.47L164.37-25.47L164.37-25.47Q166.88-23.63 166.88-20.28L166.88-20.28L166.88-20.28Q166.88-18.02 165.77-16.44L165.77-16.44L165.77-16.44Q164.66-14.86 162.71-14.08L162.71-14.08ZM157.09-24.92L148.40-24.92L148.40-15.02L157.09-15.02L157.09-15.02Q160.41-15.02 162.20-16.28L162.20-16.28L162.20-16.28Q164.00-17.55 164.00-19.97L164.00-19.97L164.00-19.97Q164.00-22.39 162.20-23.65L162.20-23.65L162.20-23.65Q160.41-24.92 157.09-24.92L157.09-24.92ZM158.03-2.38L158.03-2.38Q161.69-2.38 163.57-3.63L163.57-3.63L163.57-3.63Q165.44-4.88 165.44-7.53L165.44-7.53L165.44-7.53Q165.44-12.64 158.03-12.64L158.03-12.64L148.40-12.64L148.40-2.38L158.03-2.38ZM197.07 0.23L197.07 0.23Q193.01 0.23 189.72-1.58L189.72-1.58L189.72-1.58Q186.42-3.39 184.57-6.55L184.57-6.55L184.57-6.55Q182.72-9.71 182.72-13.65L182.72-13.65L182.72-13.65Q182.72-17.59 184.57-20.75L184.57-20.75L184.57-20.75Q186.42-23.91 189.72-25.72L189.72-25.72L189.72-25.72Q193.01-27.53 197.07-27.53L197.07-27.53L197.07-27.53Q201.12-27.53 204.38-25.74L204.38-25.74L204.38-25.74Q207.64-23.95 209.51-20.77L209.51-20.77L209.51-20.77Q211.38-17.59 211.38-13.65L211.38-13.65L211.38-13.65Q211.38-9.71 209.51-6.53L209.51-6.53L209.51-6.53Q207.64-3.35 204.38-1.56L204.38-1.56L204.38-1.56Q201.12 0.23 197.07 0.23L197.07 0.23ZM197.07-2.34L197.07-2.34Q200.30-2.34 202.92-3.80L202.92-3.80L202.92-3.80Q205.53-5.26 207.01-7.86L207.01-7.86L207.01-7.86Q208.49-10.45 208.49-13.65L208.49-13.65L208.49-13.65Q208.49-16.85 207.01-19.44L207.01-19.44L207.01-19.44Q205.53-22.04 202.92-23.50L202.92-23.50L202.92-23.50Q200.30-24.96 197.07-24.96L197.07-24.96L197.07-24.96Q193.83-24.96 191.20-23.50L191.20-23.50L191.20-23.50Q188.56-22.04 187.06-19.44L187.06-19.44L187.06-19.44Q185.56-16.85 185.56-13.65L185.56-13.65L185.56-13.65Q185.56-10.45 187.06-7.86L187.06-7.86L187.06-7.86Q188.56-5.26 191.20-3.80L191.20-3.80L191.20-3.80Q193.83-2.34 197.07-2.34L197.07-2.34ZM248.55 0L245.19 0L236.38-12.01L227.60 0L224.29 0L234.66-14.04L224.95-27.30L228.27-27.30L236.50-16.15L244.69-27.30L247.81-27.30L238.13-14.12L248.55 0Z" fill="url(#editing-shadow-gradient2)"></path></g></g></g><style>text {
  font-size: 64px;
  font-family: Arial Black;
  dominant-baseline: central;
  text-anchor: middle;
}</style></svg>